<svg xmlns="http://www.w3.org/2000/svg" viewBox="0 0 96 96" role="img" aria-label="Smoky Insider">
  <circle cx="48" cy="48" r="44" fill="#fffaf0" stroke="#075b36" stroke-width="5"/>
  <circle cx="69" cy="27" r="11" fill="#ffad22"/>
  <path d="M12 47 30 29 43 40 57 22 85 49Z" fill="#2f86d6"/>
  <path d="m30 29 7 9 6-6 8 11 6-21-14 18Z" fill="#fff" opacity=".96"/>
  <path d="m57 22 9 12 5-5 14 20H58Z" fill="#176bb0"/>
  <path d="m57 22 7 10 4-4 5 8-3-12Z" fill="#fff"/>
  <path d="M8 55c15-10 30-13 45-10 13 2 24 8 35 17v24H8Z" fill="#11834f"/>
  <path d="M8 66c17-8 32-10 47-6 12 3 23 9 33 18v10H8Z" fill="#075b36"/>
  <g fill="#06492d">
    <path d="M21 49 27 34l6 15h-4l5 9H20l5-9Z"/>
    <path d="M12 56 18 41l6 15h-4l5 9H11l5-9Z"/>
    <path d="M31 57 37 42l6 15h-4l5 9H30l5-9Z"/>
  </g>
  <path d="M47 89c18-12 22-23 8-28-18-6-25-11-13-17 9-5 23-4 40 3" fill="none" stroke="#fff" stroke-width="8" stroke-linecap="round"/>
</svg>
